<?xml version="1.0" standalone="no"?>
<!DOCTYPE svg PUBLIC "-//W3C//DTD SVG 20010904//EN"
 "http://www.w3.org/TR/2001/REC-SVG-20010904/DTD/svg10.dtd">
<svg version="1.0" xmlns="http://www.w3.org/2000/svg"
 width="8.000000pt" height="16.000000pt" viewBox="0 0 8.000000 16.000000"
 preserveAspectRatio="xMidYMid meet">

<g transform="translate(0.000000,16.000000) scale(0.100000,-0.100000)"
fill="#000000" stroke="none">
<path d="M43 153 c-7 -2 -13 -13 -13 -23 0 -11 -8 -24 -17 -30 -17 -10 -17
-10 0 -20 10 -7 17 -23 17 -40 0 -17 5 -30 10 -30 6 0 10 16 10 35 0 24 5 35
15 35 8 0 15 5 15 10 0 6 -7 10 -15 10 -8 0 -15 7 -15 15 0 8 7 15 15 15 8 0
15 7 15 15 0 15 -14 18 -37 8z"/>
</g>
</svg>
