<?xml version="1.0" standalone="no"?>
<!DOCTYPE svg PUBLIC "-//W3C//DTD SVG 20010904//EN"
 "http://www.w3.org/TR/2001/REC-SVG-20010904/DTD/svg10.dtd">
<svg version="1.0" xmlns="http://www.w3.org/2000/svg"
 width="21.000000pt" height="14.000000pt" viewBox="0 0 21.000000 14.000000"
 preserveAspectRatio="xMidYMid meet">

<g transform="translate(0.000000,14.000000) scale(0.100000,-0.100000)"
fill="#000000" stroke="none">
<path d="M26 111 c-26 -29 -18 -81 17 -101 24 -13 30 -13 55 0 17 10 28 26 30
43 3 24 0 27 -27 27 -36 0 -41 -15 -8 -24 21 -6 21 -7 4 -20 -24 -19 -56 -9
-63 20 -8 31 13 56 42 52 13 -2 24 2 26 7 6 20 -57 17 -76 -4z"/>
<path d="M166 81 c-6 -9 2 -41 11 -41 2 0 12 7 20 16 14 13 14 17 2 25 -18 11
-26 11 -33 0z"/>
</g>
</svg>
