<?xml version="1.0" standalone="no"?>
<!DOCTYPE svg PUBLIC "-//W3C//DTD SVG 20010904//EN"
 "http://www.w3.org/TR/2001/REC-SVG-20010904/DTD/svg10.dtd">
<svg version="1.0" xmlns="http://www.w3.org/2000/svg"
 width="12.000000pt" height="15.000000pt" viewBox="0 0 12.000000 15.000000"
 preserveAspectRatio="xMidYMid meet">

<g transform="translate(0.000000,15.000000) scale(0.100000,-0.100000)"
fill="#000000" stroke="none">
<path d="M32 134 c-23 -16 -30 -58 -12 -69 7 -4 9 2 5 17 -8 30 14 51 47 46
26 -3 37 -41 18 -63 -16 -19 -30 -10 -30 21 0 42 -17 26 -24 -23 -6 -48 1 -73
10 -36 4 14 11 20 20 16 20 -8 54 25 54 53 0 22 -33 54 -55 54 -6 0 -21 -7
-33 -16z"/>
</g>
</svg>
